<mxfile host="app.diagrams.net" modified="2021-11-07T19:42:32.198Z" agent="5.0 (Macintosh; Intel Mac OS X 10_15_7) AppleWebKit/537.36 (KHTML, like Gecko) Chrome/95.0.4638.69 Safari/537.36" etag="T0njvcaItte-qKdQZFc3" version="15.6.8" type="github">
  <diagram id="C5RBs43oDa-KdzZeNtuy" name="Page-1">
    <mxGraphModel dx="895" dy="589" grid="1" gridSize="10" guides="1" tooltips="1" connect="1" arrows="1" fold="1" page="1" pageScale="1" pageWidth="827" pageHeight="1169" math="0" shadow="0">
      <root>
        <mxCell id="WIyWlLk6GJQsqaUBKTNV-0" />
        <mxCell id="WIyWlLk6GJQsqaUBKTNV-1" parent="WIyWlLk6GJQsqaUBKTNV-0" />
        <mxCell id="jva05bBIhXNDkV-Z3Rs0-38" value="" style="group;fontColor=#A680B8;" parent="WIyWlLk6GJQsqaUBKTNV-1" vertex="1" connectable="0">
          <mxGeometry x="9.999999999999996" y="30" width="602" height="730" as="geometry" />
        </mxCell>
        <mxCell id="jva05bBIhXNDkV-Z3Rs0-0" value="" style="group" parent="jva05bBIhXNDkV-Z3Rs0-38" vertex="1" connectable="0">
          <mxGeometry x="41" width="560" height="730" as="geometry" />
        </mxCell>
        <mxCell id="jva05bBIhXNDkV-Z3Rs0-19" value="" style="endArrow=classic;html=1;rounded=0;fontSize=16;fillColor=#f8cecc;strokeColor=#b85450;" parent="jva05bBIhXNDkV-Z3Rs0-0" edge="1">
          <mxGeometry width="50" height="50" relative="1" as="geometry">
            <mxPoint x="210" y="350" as="sourcePoint" />
            <mxPoint x="231.42857142857156" y="350.0173611111111" as="targetPoint" />
          </mxGeometry>
        </mxCell>
        <mxCell id="jva05bBIhXNDkV-Z3Rs0-20" value="" style="endArrow=classic;html=1;rounded=0;fontSize=16;fillColor=#f8cecc;strokeColor=#b85450;" parent="jva05bBIhXNDkV-Z3Rs0-0" edge="1">
          <mxGeometry width="50" height="50" relative="1" as="geometry">
            <mxPoint x="210" y="409.28" as="sourcePoint" />
            <mxPoint x="231.42857142857156" y="409.29736111111106" as="targetPoint" />
          </mxGeometry>
        </mxCell>
        <mxCell id="jva05bBIhXNDkV-Z3Rs0-21" value="" style="endArrow=classic;html=1;rounded=0;fontSize=16;fillColor=#f8cecc;strokeColor=#b85450;" parent="jva05bBIhXNDkV-Z3Rs0-0" edge="1">
          <mxGeometry width="50" height="50" relative="1" as="geometry">
            <mxPoint x="210" y="478.94" as="sourcePoint" />
            <mxPoint x="231.42857142857156" y="478.9573611111111" as="targetPoint" />
          </mxGeometry>
        </mxCell>
        <mxCell id="jva05bBIhXNDkV-Z3Rs0-37" value="" style="group" parent="jva05bBIhXNDkV-Z3Rs0-0" vertex="1" connectable="0">
          <mxGeometry x="-9.07" width="393.07" height="519.4444444444445" as="geometry" />
        </mxCell>
        <mxCell id="WIyWlLk6GJQsqaUBKTNV-3" value="Raw data" style="rounded=1;whiteSpace=wrap;html=1;fontSize=12;glass=0;strokeWidth=1;shadow=0;fillColor=#FFFFFF;strokeColor=#6c8ebf;" parent="jva05bBIhXNDkV-Z3Rs0-37" vertex="1">
          <mxGeometry x="45.712857142857146" width="154.2857142857143" height="48.88888888888889" as="geometry" />
        </mxCell>
        <mxCell id="LTJ8HYo8QJe674u0WcUs-32" value="&lt;font style=&quot;font-size: 16px&quot;&gt;&lt;u&gt;Aim 1&lt;/u&gt;:&amp;nbsp;&lt;br style=&quot;font-size: 16px&quot;&gt;&lt;span id=&quot;docs-internal-guid-bc889f9e-7fff-4419-e0c3-1be9c9a6d337&quot; style=&quot;font-size: 16px&quot;&gt;&lt;span style=&quot;font-family: &amp;#34;arial&amp;#34; ; color: rgb(0 , 0 , 0) ; background-color: transparent ; vertical-align: baseline ; font-size: 16px&quot;&gt;Center of &lt;br&gt;Sequencing&lt;br&gt;&amp;nbsp;Analysis&lt;/span&gt;&lt;/span&gt;&lt;/font&gt;" style="whiteSpace=wrap;html=1;aspect=fixed;fontSize=16;fillColor=#FFFFFF;align=center;strokeColor=#82b366;verticalAlign=middle;rounded=1;" parent="jva05bBIhXNDkV-Z3Rs0-37" vertex="1">
          <mxGeometry x="19.99857142857143" y="110.00000000000001" width="195.55555555555557" height="195.55555555555557" as="geometry" />
        </mxCell>
        <mxCell id="jva05bBIhXNDkV-Z3Rs0-10" value="&lt;font style=&quot;font-size: 16px&quot;&gt;&lt;u&gt;Aim 2&lt;/u&gt;:&amp;nbsp;&lt;br&gt;Mutation Count&lt;br&gt;&lt;span id=&quot;docs-internal-guid-d7643628-7fff-0ea7-7dd4-fb121b0baa99&quot;&gt;&lt;span style=&quot;font-family: &amp;#34;arial&amp;#34; ; background-color: transparent ; vertical-align: baseline&quot;&gt;Classification System&lt;/span&gt;&lt;/span&gt;&lt;br&gt;&lt;/font&gt;" style="whiteSpace=wrap;html=1;aspect=fixed;fontSize=12;fillColor=#FFFFFF;align=center;fontStyle=0;strokeColor=#82b366;rounded=1;" parent="jva05bBIhXNDkV-Z3Rs0-37" vertex="1">
          <mxGeometry x="19.99857142857143" y="323.8888888888889" width="195.55555555555557" height="195.55555555555557" as="geometry" />
        </mxCell>
        <mxCell id="jva05bBIhXNDkV-Z3Rs0-23" value="" style="endArrow=classic;html=1;rounded=0;fontSize=16;fillColor=#60a917;strokeColor=#2D7600;" parent="jva05bBIhXNDkV-Z3Rs0-37" edge="1">
          <mxGeometry width="50" height="50" relative="1" as="geometry">
            <mxPoint x="99.07" y="54" as="sourcePoint" />
            <mxPoint x="99.07" y="104" as="targetPoint" />
          </mxGeometry>
        </mxCell>
        <mxCell id="jva05bBIhXNDkV-Z3Rs0-28" value="&lt;span style=&quot;color: rgb(0 , 0 , 0)&quot;&gt;Aim 1.1:&amp;nbsp;&lt;/span&gt;&lt;br style=&quot;color: rgb(0 , 0 , 0)&quot;&gt;&lt;span id=&quot;docs-internal-guid-32b5493a-7fff-44e1-2a43-0ddc0aedb55e&quot; style=&quot;color: rgb(0 , 0 , 0)&quot;&gt;&lt;span style=&quot;font-family: &amp;#34;arial&amp;#34; ; background-color: transparent ; vertical-align: baseline&quot;&gt;Classify severity of cancer by site&amp;nbsp;&lt;/span&gt;&lt;/span&gt;" style="shape=step;perimeter=stepPerimeter;whiteSpace=wrap;html=1;fixedSize=1;rounded=1;fontSize=13;verticalAlign=middle;fillColor=#FFFFFF;strokeColor=#b85450;" parent="jva05bBIhXNDkV-Z3Rs0-37" vertex="1">
          <mxGeometry x="233.07" y="122.39" width="152" height="80" as="geometry" />
        </mxCell>
        <mxCell id="jva05bBIhXNDkV-Z3Rs0-32" value="&lt;span style=&quot;color: rgb(0 , 0 , 0)&quot;&gt;Aim 1.2:&amp;nbsp;&lt;/span&gt;&lt;br style=&quot;color: rgb(0 , 0 , 0)&quot;&gt;&lt;span id=&quot;docs-internal-guid-430a61ab-7fff-0e5c-0323-d102c36e70b5&quot; style=&quot;color: rgb(0 , 0 , 0)&quot;&gt;&lt;span style=&quot;font-family: &amp;#34;arial&amp;#34; ; background-color: transparent ; vertical-align: baseline&quot;&gt;Classify by exposure status&lt;/span&gt;&lt;/span&gt;" style="shape=step;perimeter=stepPerimeter;whiteSpace=wrap;html=1;fixedSize=1;rounded=1;fontSize=13;verticalAlign=middle;fillColor=#FFFFFF;strokeColor=#b85450;" parent="jva05bBIhXNDkV-Z3Rs0-37" vertex="1">
          <mxGeometry x="229.07" y="214" width="160" height="80" as="geometry" />
        </mxCell>
        <mxCell id="jva05bBIhXNDkV-Z3Rs0-33" value="&lt;span style=&quot;font-size: 11px&quot;&gt;Aim 2.1:&amp;nbsp;&lt;/span&gt;&lt;br style=&quot;font-size: 11px&quot;&gt;&lt;span id=&quot;docs-internal-guid-32b5493a-7fff-44e1-2a43-0ddc0aedb55e&quot; style=&quot;font-size: 11px&quot;&gt;&lt;span style=&quot;font-family: &amp;#34;arial&amp;#34; ; background-color: transparent ; vertical-align: baseline&quot;&gt;Create mutation count classification system&lt;/span&gt;&lt;/span&gt;" style="shape=step;perimeter=stepPerimeter;whiteSpace=wrap;html=1;fixedSize=1;rounded=1;fontSize=13;verticalAlign=middle;fillColor=default;strokeColor=#b85450;" parent="jva05bBIhXNDkV-Z3Rs0-37" vertex="1">
          <mxGeometry x="233.07" y="330" width="160" height="45.22" as="geometry" />
        </mxCell>
        <mxCell id="jva05bBIhXNDkV-Z3Rs0-34" value="&lt;span style=&quot;font-size: 10px&quot;&gt;Aim 2.2:&amp;nbsp;&lt;/span&gt;&lt;br style=&quot;font-size: 10px&quot;&gt;&lt;span id=&quot;docs-internal-guid-430a61ab-7fff-0e5c-0323-d102c36e70b5&quot; style=&quot;font-size: 10px&quot;&gt;&lt;span style=&quot;font-family: &amp;#34;arial&amp;#34; ; background-color: transparent ; vertical-align: baseline&quot;&gt;Link in exposure status&lt;br&gt;&amp;nbsp;and fraction of altered&amp;nbsp;&lt;br&gt;genome?&lt;/span&gt;&lt;/span&gt;" style="shape=step;perimeter=stepPerimeter;whiteSpace=wrap;html=1;fixedSize=1;rounded=1;fontSize=13;verticalAlign=middle;fillColor=#FFFFFF;strokeColor=#b85450;" parent="jva05bBIhXNDkV-Z3Rs0-37" vertex="1">
          <mxGeometry x="233.07" y="379" width="160" height="66" as="geometry" />
        </mxCell>
        <mxCell id="jva05bBIhXNDkV-Z3Rs0-35" value="&lt;span style=&quot;font-size: 10px&quot;&gt;Aim 2.3:&amp;nbsp;&lt;/span&gt;&lt;br style=&quot;font-size: 10px&quot;&gt;&lt;span id=&quot;docs-internal-guid-430a61ab-7fff-0e5c-0323-d102c36e70b5&quot; style=&quot;font-size: 10px&quot;&gt;&lt;span style=&quot;font-family: &amp;#34;arial&amp;#34; ; background-color: transparent ; vertical-align: baseline&quot;&gt;Is exposure status &amp;amp;&lt;br&gt;&amp;nbsp;fraction of altered genome&lt;br&gt;&amp;nbsp;related to biopsy sites?&lt;/span&gt;&lt;/span&gt;" style="shape=step;perimeter=stepPerimeter;whiteSpace=wrap;html=1;fixedSize=1;rounded=1;fontSize=13;verticalAlign=middle;fillColor=#FFFFFF;strokeColor=#b85450;" parent="jva05bBIhXNDkV-Z3Rs0-37" vertex="1">
          <mxGeometry x="233.07" y="450" width="160" height="60" as="geometry" />
        </mxCell>
        <mxCell id="jva05bBIhXNDkV-Z3Rs0-30" value="" style="shape=curlyBracket;whiteSpace=wrap;html=1;rounded=1;fontSize=13;verticalAlign=middle;fillColor=#0050ef;strokeColor=#001DBC;fontColor=#ffffff;" parent="jva05bBIhXNDkV-Z3Rs0-37" vertex="1">
          <mxGeometry width="20" height="104" as="geometry" />
        </mxCell>
        <mxCell id="UrIfdFHcw9ySpkhSnF8r-1" value="" style="endArrow=classic;html=1;rounded=0;fontSize=16;fillColor=#f8cecc;strokeColor=#b85450;" parent="jva05bBIhXNDkV-Z3Rs0-37" edge="1">
          <mxGeometry width="50" height="50" relative="1" as="geometry">
            <mxPoint x="219.07" y="250" as="sourcePoint" />
            <mxPoint x="240.49857142857155" y="250.0173611111111" as="targetPoint" />
          </mxGeometry>
        </mxCell>
        <mxCell id="UrIfdFHcw9ySpkhSnF8r-2" value="" style="endArrow=classic;html=1;rounded=0;fontSize=16;fillColor=#f8cecc;strokeColor=#b85450;" parent="jva05bBIhXNDkV-Z3Rs0-37" edge="1">
          <mxGeometry width="50" height="50" relative="1" as="geometry">
            <mxPoint x="221.07" y="160" as="sourcePoint" />
            <mxPoint x="242.49857142857155" y="160.0173611111111" as="targetPoint" />
          </mxGeometry>
        </mxCell>
        <mxCell id="jva05bBIhXNDkV-Z3Rs0-59" value="" style="shape=curlyBracket;whiteSpace=wrap;html=1;rounded=1;fontSize=13;strokeColor=#56517e;fillColor=#d0cee2;verticalAlign=middle;" parent="jva05bBIhXNDkV-Z3Rs0-0" vertex="1">
          <mxGeometry x="-9.07" y="114" width="20" height="616" as="geometry" />
        </mxCell>
        <mxCell id="jva05bBIhXNDkV-Z3Rs0-39" value="&lt;font style=&quot;font-size: 16px&quot;&gt;&lt;u&gt;Bonus Aim&lt;/u&gt;:&amp;nbsp;&lt;br&gt;&lt;span id=&quot;docs-internal-guid-02cd7383-7fff-e907-d800-ce4748073192&quot;&gt;&lt;span style=&quot;font-size: 10.9091pt ; font-family: &amp;#34;arial&amp;#34; ; background-color: transparent ; vertical-align: baseline&quot;&gt;Association Between Diagnosis Age and Tumor Site&lt;/span&gt;&lt;/span&gt;&lt;br&gt;&lt;/font&gt;" style="whiteSpace=wrap;html=1;aspect=fixed;fontSize=12;fillColor=#FFFFFF;align=center;fontStyle=0;strokeColor=#82b366;rounded=1;" parent="jva05bBIhXNDkV-Z3Rs0-0" vertex="1">
          <mxGeometry x="10.92857142857143" y="533.448888888889" width="195.55555555555557" height="195.55555555555557" as="geometry" />
        </mxCell>
        <mxCell id="UrIfdFHcw9ySpkhSnF8r-3" value="Extract tumor&lt;br&gt;&amp;nbsp;content and &lt;br&gt;sequencing site &lt;br&gt;columns" style="shape=step;perimeter=stepPerimeter;whiteSpace=wrap;html=1;fixedSize=1;rounded=1;fontSize=13;verticalAlign=middle;fillColor=#FFFFFF;strokeColor=#b85450;" parent="jva05bBIhXNDkV-Z3Rs0-0" vertex="1">
          <mxGeometry x="385" y="120" width="152" height="80" as="geometry" />
        </mxCell>
        <mxCell id="UrIfdFHcw9ySpkhSnF8r-7" value="" style="endArrow=classic;html=1;rounded=0;fontSize=16;fillColor=#f8cecc;strokeColor=#b85450;" parent="jva05bBIhXNDkV-Z3Rs0-0" edge="1">
          <mxGeometry width="50" height="50" relative="1" as="geometry">
            <mxPoint x="377" y="159.5" as="sourcePoint" />
            <mxPoint x="398.42857142857156" y="159.5173611111111" as="targetPoint" />
          </mxGeometry>
        </mxCell>
        <mxCell id="jva05bBIhXNDkV-Z3Rs0-24" value="Clean &amp;amp; Filter" style="text;html=1;align=center;verticalAlign=middle;resizable=0;points=[];autosize=1;strokeColor=none;fillColor=#FFFFFF;fontSize=13;rotation=-90;fontColor=#0000FF;" parent="jva05bBIhXNDkV-Z3Rs0-38" vertex="1">
          <mxGeometry x="-23" y="42" width="90" height="20" as="geometry" />
        </mxCell>
        <mxCell id="jva05bBIhXNDkV-Z3Rs0-60" value="Data Analysis" style="text;html=1;align=center;verticalAlign=middle;resizable=0;points=[];autosize=1;strokeColor=none;fillColor=#FFFFFF;fontSize=13;rotation=-90;fontColor=#A680B8;" parent="jva05bBIhXNDkV-Z3Rs0-38" vertex="1">
          <mxGeometry x="-23" y="410" width="90" height="20" as="geometry" />
        </mxCell>
        <mxCell id="UrIfdFHcw9ySpkhSnF8r-6" value="" style="endArrow=classic;html=1;rounded=0;fontSize=16;fillColor=#f8cecc;strokeColor=#b85450;" parent="WIyWlLk6GJQsqaUBKTNV-1" edge="1">
          <mxGeometry width="50" height="50" relative="1" as="geometry">
            <mxPoint x="592" y="190" as="sourcePoint" />
            <mxPoint x="613.4285714285716" y="190.0173611111111" as="targetPoint" />
          </mxGeometry>
        </mxCell>
        <mxCell id="UrIfdFHcw9ySpkhSnF8r-8" value="Numerically and&lt;br&gt;&amp;nbsp;visually summarize&lt;br&gt;&amp;nbsp;tumor content &lt;br&gt;in relation to &lt;br&gt;sequencing site&amp;nbsp;" style="shape=step;perimeter=stepPerimeter;whiteSpace=wrap;html=1;fixedSize=1;rounded=1;fontSize=13;verticalAlign=middle;fillColor=#FFFFFF;strokeColor=#b85450;" parent="WIyWlLk6GJQsqaUBKTNV-1" vertex="1">
          <mxGeometry x="601" y="150" width="152" height="80" as="geometry" />
        </mxCell>
      </root>
    </mxGraphModel>
  </diagram>
</mxfile>
